<svg width="1600" height="900" viewBox="0 0 1600 900" fill="none" xmlns="http://www.w3.org/2000/svg">
  <defs>
    <linearGradient id="sky" x1="800" y1="0" x2="800" y2="900" gradientUnits="userSpaceOnUse">
      <stop offset="0" stop-color="#71C9F7"/>
      <stop offset="0.36" stop-color="#CBEAFC"/>
      <stop offset="1" stop-color="#F6FAFD"/>
    </linearGradient>
    <filter id="blur40" x="-20%" y="-20%" width="140%" height="140%">
      <feGaussianBlur stdDeviation="30"/>
    </filter>
    <filter id="blur60" x="-20%" y="-20%" width="140%" height="140%">
      <feGaussianBlur stdDeviation="46"/>
    </filter>
  </defs>
  <rect width="1600" height="900" fill="url(#sky)"/>
  <g opacity="0.85" filter="url(#blur60)">
    <ellipse cx="270" cy="250" rx="170" ry="78" fill="white"/>
    <ellipse cx="430" cy="232" rx="150" ry="72" fill="white"/>
    <ellipse cx="1240" cy="210" rx="230" ry="95" fill="#F8FCFF"/>
    <ellipse cx="1360" cy="240" rx="180" ry="82" fill="white"/>
    <ellipse cx="1220" cy="430" rx="270" ry="108" fill="white"/>
    <ellipse cx="1430" cy="445" rx="210" ry="92" fill="#FBFDFF"/>
    <ellipse cx="220" cy="640" rx="230" ry="92" fill="#FDFEFF"/>
    <ellipse cx="410" cy="670" rx="210" ry="88" fill="#F9FCFF"/>
    <ellipse cx="1010" cy="720" rx="300" ry="120" fill="#FAFDFF"/>
  </g>
  <g opacity="0.55" filter="url(#blur40)">
    <ellipse cx="770" cy="120" rx="170" ry="56" fill="white"/>
    <ellipse cx="930" cy="140" rx="160" ry="54" fill="#F8FBFF"/>
    <ellipse cx="640" cy="520" rx="190" ry="66" fill="#FFFFFF"/>
    <ellipse cx="820" cy="550" rx="170" ry="58" fill="#F5FAFF"/>
    <ellipse cx="560" cy="780" rx="180" ry="60" fill="#FAFDFF"/>
  </g>
</svg>
